<?xml version="1.0" encoding="UTF-8" standalone="no"?>
<!-- Created with Inkscape (http://www.inkscape.org/) -->

<svg
   xmlns:dc="http://purl.org/dc/elements/1.1/"
   xmlns:cc="http://creativecommons.org/ns#"
   xmlns:rdf="http://www.w3.org/1999/02/22-rdf-syntax-ns#"
   xmlns:svg="http://www.w3.org/2000/svg"
   xmlns="http://www.w3.org/2000/svg"
   xmlns:sodipodi="http://sodipodi.sourceforge.net/DTD/sodipodi-0.dtd"
   xmlns:inkscape="http://www.inkscape.org/namespaces/inkscape"
   width="350"
   height="350"
   id="svg2"
   version="1.1"
   inkscape:version="0.48.2 r9819"
   sodipodi:docname="logo.svg"
   inkscape:export-filename="/home/juha/project/jsdoc-toolkit-rst-template/doc/logo_small.png"
   inkscape:export-xdpi="64.290001"
   inkscape:export-ydpi="64.290001">
  <defs
     id="defs4" />
  <sodipodi:namedview
     id="base"
     pagecolor="#ffffff"
     bordercolor="#666666"
     borderopacity="1.0"
     inkscape:pageopacity="0"
     inkscape:pageshadow="2"
     inkscape:zoom="0.35"
     inkscape:cx="126.40098"
     inkscape:cy="-210.67449"
     inkscape:document-units="px"
     inkscape:current-layer="layer2"
     showgrid="false"
     inkscape:window-width="1248"
     inkscape:window-height="809"
     inkscape:window-x="392"
     inkscape:window-y="150"
     inkscape:window-maximized="0"
     fit-margin-top="20"
     fit-margin-left="20"
     fit-margin-bottom="20"
     fit-margin-right="20" />
  <metadata
     id="metadata7">
    <rdf:RDF>
      <cc:Work
         rdf:about="">
        <dc:format>image/svg+xml</dc:format>
        <dc:type
           rdf:resource="http://purl.org/dc/dcmitype/StillImage" />
        <dc:title></dc:title>
      </cc:Work>
    </rdf:RDF>
  </metadata>
  <g
     inkscape:label="Layer 1"
     inkscape:groupmode="layer"
     id="layer1"
     transform="translate(-6.8082785,55.833213)" />
  <g
     inkscape:groupmode="layer"
     id="layer2"
     inkscape:label="vector"
     transform="translate(-6.8082785,55.833213)">
    <g
       id="g3382">
      <rect
         y="-55.325687"
         x="6.7676678"
         height="357.59399"
         width="355.57367"
         id="rect3380"
         style="fill:#ffffff;fill-opacity:1;stroke:none" />
      <g
         transform="matrix(4.3098855,0,0,4.3098855,-1873.0631,-3372.5146)"
         id="g3330">
        <g
           id="g3312">
          <path
             style="fill:none;stroke:#000000;stroke-width:2;stroke-linecap:butt;stroke-linejoin:miter;stroke-opacity:1"
             d="m 479.82246,798.68762 c 0,0 0,0 -2.90419,0.25254 -2.90419,0.25254 -3.53553,0.37881 -4.92449,1.38896 -1.38896,1.01016 -1.38896,2.90419 -1.26269,3.40927 0.12627,0.50507 2.0203,5.80837 11.61675,10.10152 9.59645,4.29315 30.05204,19.31917 30.05204,19.31917 0,0 0.25254,-0.12627 -9.84899,-14.2684 -10.10152,-14.14214 -26.76904,-25.25382 -26.76904,-25.25382 0,0 -0.12627,0 -0.12627,-0.88388 0,-0.88389 -1.26269,-11.49049 -1.26269,-11.49049 0,0 -0.12627,0.12627 -3.91434,0 -3.78807,-0.12627 -9.47018,4.16688 -14.01587,7.44988 5.42957,-1.89404 11.11168,-1.13642 11.11168,-1.13642 0,0 1.6415,1.51523 1.01015,3.28299 -0.63134,1.76777 -2.0203,4.9245 -2.77792,6.18719 -0.75761,1.26269 -0.3788,7.07106 0.75762,9.21764 1.13642,2.14657 17.80394,21.33947 17.80394,21.33947 0,0 2.65165,-1.38896 5.17703,0.37881 2.52538,1.76777 2.52538,2.14657 2.52538,2.14657 0,0 -4.54569,-7.3236 -3.91434,-7.70241 0.63134,-0.37881 0.75761,-0.37881 0.75761,-0.37881 0,0 8.46003,4.79823 10.73287,9.47018 2.27285,4.67196 2.65165,6.31346 2.65165,6.31346 l 8.96511,-0.25254 c 0,0 -0.88389,-2.65165 -1.6415,-3.66181 -0.75761,-1.01015 -5.80838,-6.69226 -5.80838,-6.69226"
             id="path3241"
             inkscape:connector-curvature="0" />
          <path
             style="fill:none;stroke:#000000;stroke-width:2;stroke-linecap:butt;stroke-linejoin:miter;stroke-opacity:1"
             d="m 472.37258,814.21872 c 2.39912,12.75318 2.52539,14.2684 2.52539,14.2684 l 7.19733,1.6415 -0.63134,-6.18718"
             id="path3243"
             inkscape:connector-curvature="0" />
          <path
             style="fill:none;stroke:#000000;stroke-width:2;stroke-linecap:butt;stroke-linejoin:miter;stroke-opacity:1"
             d="m 475.40304,828.9922 c -2.52538,9.21764 -2.52538,9.21764 -2.52538,9.21764 l -8.08122,0.50508 15.5311,0 15.15228,0.12627 -9.97525,-1.13642 -0.50508,-10.48034"
             id="path3245"
             inkscape:connector-curvature="0" />
          <path
             style="fill:none;stroke:#000000;stroke-width:2;stroke-linecap:butt;stroke-linejoin:miter;stroke-opacity:1"
             d="m 468.33197,784.9243 c 2.27285,0.12627 2.14658,0.12627 2.14658,0.12627"
             id="path3247"
             inkscape:connector-curvature="0" />
          <path
             sodipodi:type="arc"
             style="fill:none;stroke:#000000;stroke-width:1.96587038;stroke-miterlimit:4;stroke-opacity:1;stroke-dasharray:none"
             id="path3249"
             sodipodi:cx="443.03571"
             sodipodi:cy="654.50507"
             sodipodi:rx="4.6428571"
             sodipodi:ry="4.6428571"
             d="m 447.67856,654.50507 c 0,2.56418 -2.07868,4.64285 -4.64285,4.64285 -2.56418,0 -4.64286,-2.07867 -4.64286,-4.64285 0,-2.56418 2.07868,-4.64286 4.64286,-4.64286 2.56417,0 4.64285,2.07868 4.64285,4.64286 z"
             transform="matrix(1.0173611,0,0,1.0173611,2.0048363,151.31541)" />
          <path
             style="fill:none;stroke:#000000;stroke-width:2;stroke-linecap:butt;stroke-linejoin:miter;stroke-opacity:1"
             d="m 452.64286,806.82623 c 0,20.53572 0,20.53572 0,20.53572"
             id="path3253"
             inkscape:connector-curvature="0" />
          <path
             inkscape:connector-curvature="0"
             id="path3255"
             d="m 462.91072,817.09409 c -20.53572,0 -20.53572,0 -20.53572,0"
             style="fill:none;stroke:#000000;stroke-width:2;stroke-linecap:butt;stroke-linejoin:miter;stroke-opacity:1" />
          <path
             style="fill:none;stroke:#000000;stroke-width:2;stroke-linecap:butt;stroke-linejoin:miter;stroke-opacity:1"
             d="m 443.44643,812.98695 c 0,-9.10714 -0.17857,-9.10714 -0.17857,-9.10714 l 0.0893,2.67857 c 0,0 -0.26785,-0.98214 0.89286,-1.78572 1.16072,-0.80357 2.85714,-0.625 2.85714,-0.625"
             id="path3257"
             inkscape:connector-curvature="0" />
          <g
             style="stroke-width:2"
             transform="translate(-2,154.55334)"
             id="g3259">
            <path
               sodipodi:nodetypes="czc"
               style="fill:none;stroke:#000000;stroke-width:2;stroke-linecap:butt;stroke-linejoin:miter;stroke-opacity:1"
               d="m 461.05796,668.30732 c -3.52828,-0.0531 4.31546,2.82408 3.22885,5.76521 -1.08661,2.94112 -3.92782,2.17814 -4.93797,0.15784"
               id="path3261"
               inkscape:connector-curvature="0" />
            <path
               sodipodi:nodetypes="cc"
               inkscape:connector-curvature="0"
               id="path3263"
               d="m 460.9768,668.31481 2.74635,-0.0315"
               style="fill:none;stroke:#000000;stroke-width:2;stroke-linecap:butt;stroke-linejoin:miter;stroke-opacity:1" />
          </g>
          <g
             transform="translate(-69.857143,-6)"
             id="g3306">
            <path
               style="fill:none;stroke:#000000;stroke-width:2;stroke-linecap:butt;stroke-linejoin:miter;stroke-opacity:1"
               d="m 561.67858,802.80838 2.67857,0 c 0,0 -0.35715,5.17857 1.60714,5.89286 1.96429,0.71428 4.10714,0.17857 4.46429,-2.14286 0.35714,-2.32143 -0.53572,-17.32143 -0.53572,-17.32143"
               id="path3294"
               inkscape:connector-curvature="0"
               sodipodi:nodetypes="ccssc" />
            <g
               id="g3296"
               transform="translate(111.75254,126.8881)"
               style="stroke-width:2">
              <path
                 inkscape:connector-curvature="0"
                 id="path3298"
                 d="m 461.05796,668.30732 c -3.52828,-0.0531 4.03135,3.67641 3.22885,5.76521 -0.8025,2.0888 -4.65387,0.69448 -6.2638,0.59978"
                 style="fill:none;stroke:#000000;stroke-width:2;stroke-linecap:butt;stroke-linejoin:miter;stroke-opacity:1"
                 sodipodi:nodetypes="czc" />
              <path
                 style="fill:none;stroke:#000000;stroke-width:2;stroke-linecap:butt;stroke-linejoin:miter;stroke-opacity:1"
                 d="m 460.9768,668.31481 2.74635,-0.0315"
                 id="path3300"
                 inkscape:connector-curvature="0"
                 sodipodi:nodetypes="cc" />
            </g>
          </g>
        </g>
      </g>
    </g>
    <rect
       y="358.83685"
       x="6.7676678"
       height="357.59399"
       width="355.57367"
       id="rect3405"
       style="fill:#2e3436;fill-opacity:1;stroke:none" />
    <g
       transform="matrix(4.3098855,0,0,4.3098855,-1873.0631,-2958.3521)"
       id="g3407"
       style="stroke:#ffffff;stroke-opacity:1"
       inkscape:export-filename="/home/juha/project/jsdoc-toolkit-rst-template/doc/_static/logo.png"
       inkscape:export-xdpi="35.200001"
       inkscape:export-ydpi="35.200001">
      <g
         id="g3409"
         style="stroke:#ffffff;stroke-opacity:1">
        <path
           style="fill:none;stroke:#ffffff;stroke-width:2;stroke-linecap:butt;stroke-linejoin:miter;stroke-opacity:1"
           d="m 479.82246,798.68762 c 0,0 0,0 -2.90419,0.25254 -2.90419,0.25254 -3.53553,0.37881 -4.92449,1.38896 -1.38896,1.01016 -1.38896,2.90419 -1.26269,3.40927 0.12627,0.50507 2.0203,5.80837 11.61675,10.10152 9.59645,4.29315 30.05204,19.31917 30.05204,19.31917 0,0 0.25254,-0.12627 -9.84899,-14.2684 -10.10152,-14.14214 -26.76904,-25.25382 -26.76904,-25.25382 0,0 -0.12627,0 -0.12627,-0.88388 0,-0.88389 -1.26269,-11.49049 -1.26269,-11.49049 0,0 -0.12627,0.12627 -3.91434,0 -3.78807,-0.12627 -9.47018,4.16688 -14.01587,7.44988 5.42957,-1.89404 11.11168,-1.13642 11.11168,-1.13642 0,0 1.6415,1.51523 1.01015,3.28299 -0.63134,1.76777 -2.0203,4.9245 -2.77792,6.18719 -0.75761,1.26269 -0.3788,7.07106 0.75762,9.21764 1.13642,2.14657 17.80394,21.33947 17.80394,21.33947 0,0 2.65165,-1.38896 5.17703,0.37881 2.52538,1.76777 2.52538,2.14657 2.52538,2.14657 0,0 -4.54569,-7.3236 -3.91434,-7.70241 0.63134,-0.37881 0.75761,-0.37881 0.75761,-0.37881 0,0 8.46003,4.79823 10.73287,9.47018 2.27285,4.67196 2.65165,6.31346 2.65165,6.31346 l 8.96511,-0.25254 c 0,0 -0.88389,-2.65165 -1.6415,-3.66181 -0.75761,-1.01015 -5.80838,-6.69226 -5.80838,-6.69226"
           id="path3411"
           inkscape:connector-curvature="0" />
        <path
           style="fill:none;stroke:#ffffff;stroke-width:2;stroke-linecap:butt;stroke-linejoin:miter;stroke-opacity:1"
           d="m 472.37258,814.21872 c 2.39912,12.75318 2.52539,14.2684 2.52539,14.2684 l 7.19733,1.6415 -0.63134,-6.18718"
           id="path3413"
           inkscape:connector-curvature="0" />
        <path
           style="fill:none;stroke:#ffffff;stroke-width:2;stroke-linecap:butt;stroke-linejoin:miter;stroke-opacity:1"
           d="m 475.40304,828.9922 c -2.52538,9.21764 -2.52538,9.21764 -2.52538,9.21764 l -8.08122,0.50508 15.5311,0 15.15228,0.12627 -9.97525,-1.13642 -0.50508,-10.48034"
           id="path3415"
           inkscape:connector-curvature="0" />
        <path
           style="fill:none;stroke:#ffffff;stroke-width:2;stroke-linecap:butt;stroke-linejoin:miter;stroke-opacity:1"
           d="m 468.33197,784.9243 c 2.27285,0.12627 2.14658,0.12627 2.14658,0.12627"
           id="path3417"
           inkscape:connector-curvature="0" />
        <path
           sodipodi:type="arc"
           style="fill:none;stroke:#ffffff;stroke-width:1.96587037999999992;stroke-miterlimit:4;stroke-opacity:1;stroke-dasharray:none"
           id="path3419"
           sodipodi:cx="443.03571"
           sodipodi:cy="654.50507"
           sodipodi:rx="4.6428571"
           sodipodi:ry="4.6428571"
           d="m 447.67856,654.50507 c 0,2.56418 -2.07868,4.64285 -4.64285,4.64285 -2.56418,0 -4.64286,-2.07867 -4.64286,-4.64285 0,-2.56418 2.07868,-4.64286 4.64286,-4.64286 2.56417,0 4.64285,2.07868 4.64285,4.64286 z"
           transform="matrix(1.0173611,0,0,1.0173611,2.0048363,151.31541)" />
        <path
           style="fill:none;stroke:#ffffff;stroke-width:2;stroke-linecap:butt;stroke-linejoin:miter;stroke-opacity:1"
           d="m 452.64286,806.82623 c 0,20.53572 0,20.53572 0,20.53572"
           id="path3421"
           inkscape:connector-curvature="0" />
        <path
           inkscape:connector-curvature="0"
           id="path3423"
           d="m 462.91072,817.09409 c -20.53572,0 -20.53572,0 -20.53572,0"
           style="fill:none;stroke:#ffffff;stroke-width:2;stroke-linecap:butt;stroke-linejoin:miter;stroke-opacity:1" />
        <path
           style="fill:none;stroke:#ffffff;stroke-width:2;stroke-linecap:butt;stroke-linejoin:miter;stroke-opacity:1"
           d="m 443.44643,812.98695 c 0,-9.10714 -0.17857,-9.10714 -0.17857,-9.10714 l 0.0893,2.67857 c 0,0 -0.26785,-0.98214 0.89286,-1.78572 1.16072,-0.80357 2.85714,-0.625 2.85714,-0.625"
           id="path3425"
           inkscape:connector-curvature="0" />
        <g
           style="stroke-width:2;stroke:#ffffff;stroke-opacity:1"
           transform="translate(-2,154.55334)"
           id="g3427">
          <path
             sodipodi:nodetypes="czc"
             style="fill:none;stroke:#ffffff;stroke-width:2;stroke-linecap:butt;stroke-linejoin:miter;stroke-opacity:1"
             d="m 461.05796,668.30732 c -3.52828,-0.0531 4.31546,2.82408 3.22885,5.76521 -1.08661,2.94112 -3.92782,2.17814 -4.93797,0.15784"
             id="path3429"
             inkscape:connector-curvature="0" />
          <path
             sodipodi:nodetypes="cc"
             inkscape:connector-curvature="0"
             id="path3431"
             d="m 460.9768,668.31481 2.74635,-0.0315"
             style="fill:none;stroke:#ffffff;stroke-width:2;stroke-linecap:butt;stroke-linejoin:miter;stroke-opacity:1" />
        </g>
        <g
           transform="translate(-69.857143,-6)"
           id="g3433"
           style="stroke:#ffffff;stroke-opacity:1">
          <path
             style="fill:none;stroke:#ffffff;stroke-width:2;stroke-linecap:butt;stroke-linejoin:miter;stroke-opacity:1"
             d="m 561.67858,802.80838 2.67857,0 c 0,0 -0.35715,5.17857 1.60714,5.89286 1.96429,0.71428 4.10714,0.17857 4.46429,-2.14286 0.35714,-2.32143 -0.53572,-17.32143 -0.53572,-17.32143"
             id="path3435"
             inkscape:connector-curvature="0"
             sodipodi:nodetypes="ccssc" />
          <g
             id="g3437"
             transform="translate(111.75254,126.8881)"
             style="stroke-width:2;stroke:#ffffff;stroke-opacity:1">
            <path
               inkscape:connector-curvature="0"
               id="path3439"
               d="m 461.05796,668.30732 c -3.52828,-0.0531 4.03135,3.67641 3.22885,5.76521 -0.8025,2.0888 -4.65387,0.69448 -6.2638,0.59978"
               style="fill:none;stroke:#ffffff;stroke-width:2;stroke-linecap:butt;stroke-linejoin:miter;stroke-opacity:1"
               sodipodi:nodetypes="czc" />
            <path
               style="fill:none;stroke:#ffffff;stroke-width:2;stroke-linecap:butt;stroke-linejoin:miter;stroke-opacity:1"
               d="m 460.9768,668.31481 2.74635,-0.0315"
               id="path3441"
               inkscape:connector-curvature="0"
               sodipodi:nodetypes="cc" />
          </g>
        </g>
      </g>
    </g>
  </g>
</svg>
